<svg id="tailwind-logo" xmlns="http://www.w3.org/2000/svg" width="34" height="20.278" viewBox="0 0 34 20.278">
  <g id="waves">
    <path id="Path_1" data-name="Path 1" d="M17,0q-6.8,0-8.5,6.76,2.55-3.38,5.95-2.535A7.24,7.24,0,0,1,17.691,6.51c1.667,1.682,3.6,3.628,7.81,3.628q6.8,0,8.5-6.759-2.549,3.38-5.949,2.534a7.242,7.242,0,0,1-3.241-2.286C23.142,1.944,21.214,0,17,0M8.5,10.138q-6.8,0-8.5,6.76,2.55-3.38,5.949-2.535a7.239,7.239,0,0,1,3.241,2.286c1.667,1.682,3.6,3.628,7.81,3.628q6.8,0,8.5-6.759-2.55,3.38-5.95,2.535a7.25,7.25,0,0,1-3.241-2.286c-1.667-1.682-3.6-3.628-7.81-3.628" transform="translate(0 0.001)" fill="#38bdf8" fill-rule="evenodd"/>
  </g>
</svg>
