<svg id="logo" xmlns="http://www.w3.org/2000/svg" width="397.285" height="32.035" viewBox="0 0 397.285 32.035">
  <g id="templates" transform="translate(-4632 18.317)">
    <path id="Path_24" data-name="Path 24" d="M390.481,9.75V20.5a3.074,3.074,0,0,0,.6,2.189,2.964,2.964,0,0,0,2.125.6h2.03v1.9h-2.379a4.878,4.878,0,0,1-3.489-1.094,4.821,4.821,0,0,1-1.142-3.6V9.75h-2.41V7.878h2.41V3.533h2.252V7.878h4.758V9.75Z" transform="translate(4485.166 -19.662)" fill="var(--color-icons-fill)"/>
    <path id="Path_25" data-name="Path 25" d="M421.9,19.908H407.529a6.965,6.965,0,0,0,.951,3.362,5.6,5.6,0,0,0,2.252,2.109,6.585,6.585,0,0,0,3.044.714,6.114,6.114,0,0,0,3.632-1.047,4.911,4.911,0,0,0,1.951-2.823h2.347A7.332,7.332,0,0,1,419,26.362a8.291,8.291,0,0,1-5.218,1.6A8.733,8.733,0,0,1,409.4,26.87a7.718,7.718,0,0,1-3.028-3.108,9.716,9.716,0,0,1-1.095-4.711,9.929,9.929,0,0,1,1.078-4.726,7.5,7.5,0,0,1,3.013-3.108,8.9,8.9,0,0,1,4.408-1.078,8.465,8.465,0,0,1,4.33,1.078,7.464,7.464,0,0,1,2.854,2.9,8.274,8.274,0,0,1,1,4.044q0,1.141-.064,1.744M418.932,14.8a5.249,5.249,0,0,0-2.2-2.061,6.715,6.715,0,0,0-3.045-.7,6.047,6.047,0,0,0-4.218,1.586,6.333,6.333,0,0,0-1.934,4.472h12.179a6.156,6.156,0,0,0-.777-3.3" transform="translate(4477.76 -22.176)" fill="var(--color-icons-fill)"/>
    <path id="Path_26" data-name="Path 26" d="M464.345,11.956a7.539,7.539,0,0,1,1.919,5.566v10.15h-2.189v-9.9a6.177,6.177,0,0,0-1.363-4.314A4.783,4.783,0,0,0,459,11.971a5,5,0,0,0-3.9,1.618,6.786,6.786,0,0,0-1.459,4.694v9.389h-2.188v-9.9a6.177,6.177,0,0,0-1.364-4.314,4.821,4.821,0,0,0-3.743-1.491,5,5,0,0,0-3.9,1.618,6.783,6.783,0,0,0-1.459,4.694v9.389h-2.22V10.354h2.22v2.981a5.673,5.673,0,0,1,2.347-2.458,6.9,6.9,0,0,1,3.394-.841,7.2,7.2,0,0,1,3.949,1.079,6.079,6.079,0,0,1,2.457,3.171,5.855,5.855,0,0,1,2.4-3.156,6.952,6.952,0,0,1,3.853-1.095,6.717,6.717,0,0,1,4.964,1.92" transform="translate(4465.015 -22.137)" fill="var(--color-icons-fill)"/>
    <path id="Path_27" data-name="Path 27" d="M495.9,11.3a7.688,7.688,0,0,1,4.266-1.158,8.294,8.294,0,0,1,4.234,1.094,7.611,7.611,0,0,1,2.949,3.109,9.878,9.878,0,0,1,1.063,4.678,9.975,9.975,0,0,1-1.063,4.694,7.693,7.693,0,0,1-2.949,3.14,8.2,8.2,0,0,1-4.234,1.11,7.7,7.7,0,0,1-4.25-1.158,6.968,6.968,0,0,1-2.633-2.9v11.99H491.1v-25.5h2.188V14.2a7,7,0,0,1,2.617-2.9m9.42,4a5.85,5.85,0,0,0-2.3-2.395,6.583,6.583,0,0,0-3.3-.824,6.363,6.363,0,0,0-3.251.856,6.111,6.111,0,0,0-2.332,2.442,7.628,7.628,0,0,0-.856,3.679,7.633,7.633,0,0,0,.856,3.68,6.113,6.113,0,0,0,2.332,2.442,6.358,6.358,0,0,0,3.251.857,6.485,6.485,0,0,0,3.3-.841,5.916,5.916,0,0,0,2.3-2.442,7.917,7.917,0,0,0,.84-3.726,7.8,7.8,0,0,0-.84-3.727" transform="translate(4445.099 -22.176)" fill="var(--color-icons-fill)"/>
    <rect id="Rectangle_353" data-name="Rectangle 353" width="2.22" height="23.472" transform="translate(4957.604 -17.937)" fill="var(--color-icons-fill)"/>
    <path id="Path_28" data-name="Path 28" d="M536.808,14.342a7.606,7.606,0,0,1,2.95-3.109,8.348,8.348,0,0,1,4.265-1.094,7.767,7.767,0,0,1,4.267,1.142,6.644,6.644,0,0,1,2.585,2.917V10.393h2.22V27.711h-2.22V23.873a6.951,6.951,0,0,1-2.617,2.934,7.684,7.684,0,0,1-4.266,1.158,8.188,8.188,0,0,1-4.234-1.11,7.688,7.688,0,0,1-2.95-3.14,9.975,9.975,0,0,1-1.062-4.694,9.879,9.879,0,0,1,1.062-4.678m13.21,1.031a6.11,6.11,0,0,0-2.331-2.442,6.361,6.361,0,0,0-3.251-.856,6.579,6.579,0,0,0-3.3.824,5.842,5.842,0,0,0-2.3,2.395A7.793,7.793,0,0,0,538,19.02a7.909,7.909,0,0,0,.84,3.726,5.9,5.9,0,0,0,2.3,2.442,6.482,6.482,0,0,0,3.3.841,6.356,6.356,0,0,0,3.251-.857,6.109,6.109,0,0,0,2.331-2.442,7.626,7.626,0,0,0,.857-3.68,7.623,7.623,0,0,0-.857-3.679" transform="translate(4428.106 -22.176)" fill="var(--color-icons-fill)"/>
    <path id="Path_29" data-name="Path 29" d="M573.742,9.75V20.5a3.075,3.075,0,0,0,.6,2.189,2.964,2.964,0,0,0,2.125.6h2.03v1.9h-2.379a4.878,4.878,0,0,1-3.489-1.094,4.821,4.821,0,0,1-1.142-3.6V9.75h-2.41V7.878h2.41V3.533h2.252V7.878H578.5V9.75Z" transform="translate(4415.42 -19.662)" fill="var(--color-icons-fill)"/>
    <path id="Path_30" data-name="Path 30" d="M605.158,19.908H590.79a6.965,6.965,0,0,0,.951,3.362,5.6,5.6,0,0,0,2.252,2.109,6.585,6.585,0,0,0,3.044.714,6.114,6.114,0,0,0,3.632-1.047,4.911,4.911,0,0,0,1.951-2.823h2.347a7.332,7.332,0,0,1-2.711,4.139,8.29,8.29,0,0,1-5.218,1.6,8.733,8.733,0,0,1-4.378-1.095,7.718,7.718,0,0,1-3.028-3.108,9.716,9.716,0,0,1-1.094-4.711,9.929,9.929,0,0,1,1.078-4.726,7.5,7.5,0,0,1,3.013-3.108,8.9,8.9,0,0,1,4.408-1.078,8.465,8.465,0,0,1,4.33,1.078,7.464,7.464,0,0,1,2.854,2.9,8.274,8.274,0,0,1,1,4.044q0,1.141-.064,1.744M602.193,14.8a5.249,5.249,0,0,0-2.2-2.061,6.715,6.715,0,0,0-3.045-.7,6.047,6.047,0,0,0-4.218,1.586A6.334,6.334,0,0,0,590.79,18.1h12.179a6.156,6.156,0,0,0-.777-3.3" transform="translate(4408.015 -22.176)" fill="var(--color-icons-fill)"/>
    <path id="Path_31" data-name="Path 31" d="M622.5,26.585a5.024,5.024,0,0,1-2.109-3.758h2.283a3.275,3.275,0,0,0,1.38,2.362,5.394,5.394,0,0,0,3.283.9,4.314,4.314,0,0,0,2.839-.857,2.659,2.659,0,0,0,1.031-2.125,1.977,1.977,0,0,0-.571-1.459,4.061,4.061,0,0,0-1.443-.9,22.509,22.509,0,0,0-2.363-.713,24,24,0,0,1-3.14-1.015,5.339,5.339,0,0,1-2.046-1.507,4.025,4.025,0,0,1-.841-2.68,3.99,3.99,0,0,1,.761-2.347,5.2,5.2,0,0,1,2.157-1.712,7.583,7.583,0,0,1,3.172-.635,6.856,6.856,0,0,1,4.5,1.412,5.127,5.127,0,0,1,1.84,3.886h-2.221a3.371,3.371,0,0,0-1.189-2.458,4.464,4.464,0,0,0-3-.936,4.4,4.4,0,0,0-2.727.793,2.385,2.385,0,0,0-1.047,1.967,2.317,2.317,0,0,0,.619,1.665,4.247,4.247,0,0,0,1.538,1.015q.919.364,2.474.808a23.506,23.506,0,0,1,2.982.983,5.2,5.2,0,0,1,1.9,1.4,3.742,3.742,0,0,1,.824,2.443,4.251,4.251,0,0,1-.762,2.489,5.175,5.175,0,0,1-2.125,1.729,7.377,7.377,0,0,1-3.141.634,8.041,8.041,0,0,1-4.868-1.38" transform="translate(4395.893 -22.176)" fill="var(--color-icons-fill)"/>
  </g>
  <g id="tailwindcss" transform="translate(-4632 18.317)">
    <path id="Path_35" data-name="Path 35" d="M61.7,9.75V20.5a3.078,3.078,0,0,0,.6,2.189,2.965,2.965,0,0,0,2.125.6h2.03v1.9H64.078A4.876,4.876,0,0,1,60.589,24.1a4.821,4.821,0,0,1-1.142-3.6V9.75h-2.41V7.878h2.41V3.533H61.7V7.878h4.758V9.75Z" transform="translate(4610.293 -19.662)" fill="currentColor"/>
    <path id="Path_36" data-name="Path 36" d="M77.557,14.342a7.6,7.6,0,0,1,2.95-3.109,8.35,8.35,0,0,1,4.266-1.094,7.764,7.764,0,0,1,4.266,1.142A6.641,6.641,0,0,1,91.624,14.2V10.393h2.221V27.711H91.624V23.873a6.953,6.953,0,0,1-2.616,2.934,7.684,7.684,0,0,1-4.266,1.158,8.19,8.19,0,0,1-4.234-1.11,7.686,7.686,0,0,1-2.95-3.14A9.975,9.975,0,0,1,76.5,19.02a9.88,9.88,0,0,1,1.062-4.678m13.21,1.031a6.111,6.111,0,0,0-2.332-2.442,6.361,6.361,0,0,0-3.251-.856,6.582,6.582,0,0,0-3.3.824,5.845,5.845,0,0,0-2.3,2.395,7.787,7.787,0,0,0-.841,3.727,7.9,7.9,0,0,0,.841,3.726,5.907,5.907,0,0,0,2.3,2.442,6.485,6.485,0,0,0,3.3.841,6.355,6.355,0,0,0,3.251-.857,6.109,6.109,0,0,0,2.332-2.442,7.633,7.633,0,0,0,.856-3.68,7.63,7.63,0,0,0-.856-3.679" transform="translate(4602.888 -22.176)" fill="currentColor"/>
    <path id="Path_37" data-name="Path 37" d="M112.352,2.791a1.6,1.6,0,0,1-.475-1.173A1.549,1.549,0,0,1,112.352.46a1.649,1.649,0,0,1,2.284,0,1.546,1.546,0,0,1,.475,1.158,1.592,1.592,0,0,1-.475,1.173,1.608,1.608,0,0,1-2.284,0M114.6,23.852h-2.22V6.534h2.22Z" transform="translate(4589.422 -18.317)" fill="currentColor"/>
    <rect id="Rectangle_355" data-name="Rectangle 355" width="2.22" height="23.472" transform="translate(4709.069 -17.937)" fill="currentColor"/>
    <path id="Path_38" data-name="Path 38" d="M157.717,10.549l-5.424,17.318h-2.22L145.284,13.34l-4.789,14.527h-2.252l-5.424-17.318h2.251l4.314,15.066,4.853-15.066h2.22l4.79,15.1,4.281-15.1Z" transform="translate(4581.452 -22.332)" fill="currentColor"/>
    <path id="Path_39" data-name="Path 39" d="M177.535,2.791a1.593,1.593,0,0,1-.476-1.173A1.547,1.547,0,0,1,177.535.46a1.648,1.648,0,0,1,2.284,0,1.547,1.547,0,0,1,.476,1.158,1.593,1.593,0,0,1-.476,1.173,1.607,1.607,0,0,1-2.284,0m2.252,21.061h-2.22V6.534h2.22Z" transform="translate(4564.615 -18.317)" fill="currentColor"/>
    <path id="Path_40" data-name="Path 40" d="M202.8,11.956a7.431,7.431,0,0,1,1.967,5.566v10.15h-2.188v-9.9a6.041,6.041,0,0,0-1.412-4.314,5.053,5.053,0,0,0-3.853-1.491,5.224,5.224,0,0,0-4,1.586,6.571,6.571,0,0,0-1.491,4.662v9.452H189.6V10.354h2.22V13.3a5.665,5.665,0,0,1,2.379-2.426,7.276,7.276,0,0,1,3.521-.841,6.962,6.962,0,0,1,5.074,1.92" transform="translate(4559.841 -22.137)" fill="currentColor"/>
    <path id="Path_41" data-name="Path 41" d="M221.456,10.717a7.713,7.713,0,0,1,2.965-3.109,8.354,8.354,0,0,1,4.267-1.094,7.823,7.823,0,0,1,4.123,1.11,6.8,6.8,0,0,1,2.7,2.887V.614h2.22V24.086h-2.22v-3.87a6.673,6.673,0,0,1-2.6,2.965,7.7,7.7,0,0,1-4.25,1.158,8.25,8.25,0,0,1-4.265-1.11,7.688,7.688,0,0,1-2.95-3.14,9.975,9.975,0,0,1-1.062-4.694,9.761,9.761,0,0,1,1.078-4.678m13.194,1.031a6.11,6.11,0,0,0-2.331-2.442,6.361,6.361,0,0,0-3.251-.856,6.58,6.58,0,0,0-3.3.824,5.842,5.842,0,0,0-2.3,2.395,7.794,7.794,0,0,0-.84,3.727,7.909,7.909,0,0,0,.84,3.726,5.9,5.9,0,0,0,2.3,2.442,6.482,6.482,0,0,0,3.3.841,6.356,6.356,0,0,0,3.251-.857,6.109,6.109,0,0,0,2.331-2.442,7.626,7.626,0,0,0,.857-3.68,7.623,7.623,0,0,0-.857-3.679" transform="translate(4548.129 -18.551)" fill="currentColor"/>
    <path id="Path_42" data-name="Path 42" d="M256.019,14.342A7.684,7.684,0,0,1,259,11.233a8.566,8.566,0,0,1,4.346-1.094,8.457,8.457,0,0,1,5.281,1.586,7.188,7.188,0,0,1,2.68,4.314h-2.379a4.871,4.871,0,0,0-1.919-2.934,6.1,6.1,0,0,0-3.663-1.063,6.25,6.25,0,0,0-3.14.793A5.557,5.557,0,0,0,258,15.2a8.342,8.342,0,0,0-.808,3.854,8.438,8.438,0,0,0,.808,3.87,5.531,5.531,0,0,0,2.2,2.379,6.238,6.238,0,0,0,3.14.793,6.1,6.1,0,0,0,3.663-1.063,4.883,4.883,0,0,0,1.919-2.966h2.379a7.268,7.268,0,0,1-2.7,4.282,8.356,8.356,0,0,1-5.265,1.617A8.566,8.566,0,0,1,259,26.87a7.683,7.683,0,0,1-2.981-3.108,9.831,9.831,0,0,1-1.078-4.71,9.831,9.831,0,0,1,1.078-4.71" transform="translate(4534.975 -22.176)" fill="currentColor"/>
    <path id="Path_43" data-name="Path 43" d="M288.439,26.585a5.024,5.024,0,0,1-2.109-3.758h2.283a3.275,3.275,0,0,0,1.38,2.362,5.394,5.394,0,0,0,3.283.9,4.314,4.314,0,0,0,2.839-.857,2.659,2.659,0,0,0,1.031-2.125,1.977,1.977,0,0,0-.571-1.459,4.062,4.062,0,0,0-1.443-.9,22.514,22.514,0,0,0-2.363-.713,23.992,23.992,0,0,1-3.14-1.015,5.338,5.338,0,0,1-2.046-1.507,4.025,4.025,0,0,1-.841-2.68,3.99,3.99,0,0,1,.761-2.347,5.2,5.2,0,0,1,2.157-1.712,7.583,7.583,0,0,1,3.172-.635,6.856,6.856,0,0,1,4.5,1.412,5.127,5.127,0,0,1,1.84,3.886h-2.221a3.372,3.372,0,0,0-1.189-2.458,4.464,4.464,0,0,0-3-.936,4.4,4.4,0,0,0-2.727.793,2.385,2.385,0,0,0-1.047,1.967,2.316,2.316,0,0,0,.619,1.665,4.247,4.247,0,0,0,1.538,1.015q.919.364,2.474.808a23.505,23.505,0,0,1,2.982.983,5.2,5.2,0,0,1,1.9,1.4,3.742,3.742,0,0,1,.824,2.443,4.251,4.251,0,0,1-.762,2.489,5.175,5.175,0,0,1-2.125,1.729,7.377,7.377,0,0,1-3.14.634,8.042,8.042,0,0,1-4.868-1.38" transform="translate(4523.029 -22.176)" fill="currentColor"/>
    <path id="Path_44" data-name="Path 44" d="M314.553,26.585a5.024,5.024,0,0,1-2.109-3.758h2.283a3.275,3.275,0,0,0,1.38,2.362,5.394,5.394,0,0,0,3.283.9,4.314,4.314,0,0,0,2.839-.857,2.659,2.659,0,0,0,1.031-2.125,1.977,1.977,0,0,0-.571-1.459,4.062,4.062,0,0,0-1.443-.9,22.516,22.516,0,0,0-2.363-.713,23.992,23.992,0,0,1-3.14-1.015,5.338,5.338,0,0,1-2.046-1.507,4.025,4.025,0,0,1-.841-2.68,3.99,3.99,0,0,1,.761-2.347,5.2,5.2,0,0,1,2.157-1.712,7.583,7.583,0,0,1,3.172-.635,6.856,6.856,0,0,1,4.5,1.412,5.127,5.127,0,0,1,1.84,3.886h-2.221a3.372,3.372,0,0,0-1.189-2.458,4.464,4.464,0,0,0-3-.936,4.4,4.4,0,0,0-2.727.793,2.385,2.385,0,0,0-1.047,1.967,2.316,2.316,0,0,0,.619,1.665,4.247,4.247,0,0,0,1.538,1.015q.919.364,2.474.808a23.506,23.506,0,0,1,2.982.983,5.2,5.2,0,0,1,1.9,1.4,3.742,3.742,0,0,1,.824,2.443,4.251,4.251,0,0,1-.762,2.489,5.175,5.175,0,0,1-2.125,1.729,7.377,7.377,0,0,1-3.14.634,8.041,8.041,0,0,1-4.868-1.38" transform="translate(4513.09 -22.176)" fill="currentColor"/>
  </g>
  <path id="waves" d="M15.858,5.345q-6.343,0-7.929,6.329Q10.309,8.51,13.48,9.3A6.759,6.759,0,0,1,16.5,11.441c1.555,1.575,3.355,3.4,7.285,3.4q6.344,0,7.93-6.329-2.379,3.165-5.551,2.373a6.754,6.754,0,0,1-3.023-2.14c-1.555-1.576-3.355-3.4-7.286-3.4M7.929,14.838q-6.343,0-7.929,6.33Q2.379,18,5.55,18.794a6.759,6.759,0,0,1,3.024,2.141c1.555,1.575,3.354,3.4,7.285,3.4q6.344,0,7.93-6.329-2.38,3.165-5.551,2.374a6.776,6.776,0,0,1-3.023-2.141c-1.555-1.575-3.355-3.4-7.285-3.4" transform="translate(0 -2.034)" fill="var(--color-icons-fill)" fill-rule="evenodd"/>
  <g id="_" data-name="&lt;/&gt;" transform="translate(-4636 -12.549)">
    <path id="Path_46" data-name="Path 46" d="M0,6.009V7.471l6.776,4.493V10.056L1.73,6.776V6.705L6.776,3.423V1.515Z" transform="translate(4846 21)" fill="var(--color-icons-fill)"/>
    <path id="Path_47" data-name="Path 47" d="M15.995,0,10.129,15.513h1.765L17.76,0Z" transform="translate(4846 21)" fill="var(--color-icons-fill)"/>
    <path id="Path_48" data-name="Path 48" d="M21.112,3.423,26.158,6.7v.072l-5.046,3.28v1.908l6.775-4.493V6.009L21.112,1.515Z" transform="translate(4846 21)" fill="var(--color-icons-fill)"/>
  </g>
</svg>
